<svg width="15" height="15" viewBox="0 0 15 15" fill="none" xmlns="http://www.w3.org/2000/svg">
<path fill-rule="evenodd" clip-rule="evenodd" d="M0 12.2532V2.075C0 1.96454 0.0895431 1.875 0.2 1.875H0.8C0.910457 1.875 1 1.96454 1 2.075L1 12.0532C1 12.1636 1.08954 12.2532 1.2 12.2532H14.8C14.9105 12.2532 15 12.3427 15 12.4532V13.0532C15 13.1636 14.9105 13.2532 14.8 13.2532H0.128189C0.0573922 13.2532 0 13.1958 0 13.125V12.2532Z" fill="white"/>
<path d="M1.32806 9.89678L2.49052 11.0592C2.56862 11.1373 2.69526 11.1373 2.77336 11.0592L5.64841 8.18419C5.72652 8.10609 5.85315 8.10609 5.93125 8.18419L7.62025 9.87318C7.69907 9.95201 7.82712 9.95118 7.90491 9.87134L12.6287 5.02325C12.7039 4.94606 12.8267 4.94234 12.9065 5.01483L13.8764 5.89654C14.0048 6.01334 14.2109 5.92218 14.2109 5.74855V2.4533C14.2109 2.34284 14.1213 2.2533 14.0109 2.2533H10.4832C10.305 2.2533 10.2158 2.46872 10.3418 2.59472L11.301 3.55391C11.3811 3.63407 11.3787 3.76475 11.2956 3.84189L7.89996 6.99502C7.82308 7.06641 7.7041 7.06626 7.6274 6.99468L5.92906 5.40955C5.85109 5.33678 5.72973 5.33799 5.65323 5.41231L1.33012 9.6119C1.25008 9.68966 1.24915 9.81788 1.32806 9.89678Z" fill="white"/>
</svg>
